<mxfile host="Electron" agent="Mozilla/5.0 (X11; Linux x86_64) AppleWebKit/537.36 (KHTML, like Gecko) draw.io/24.7.17 Chrome/128.0.6613.36 Electron/32.0.1 Safari/537.36" version="24.7.17">
  <diagram name="Page-1" id="Oyf5oYQiEQ2ONGxZLHjw">
    <mxGraphModel dx="925" dy="544" grid="1" gridSize="10" guides="1" tooltips="1" connect="1" arrows="1" fold="1" page="1" pageScale="1" pageWidth="850" pageHeight="1100" math="0" shadow="0">
      <root>
        <mxCell id="0" />
        <mxCell id="1" parent="0" />
        <mxCell id="654pxxizQ128VQVu-1QA-1" value="Goods DB" style="dashed=0;outlineConnect=0;html=1;align=center;labelPosition=center;verticalLabelPosition=bottom;verticalAlign=top;shape=mxgraph.weblogos.mongodb" vertex="1" parent="1">
          <mxGeometry x="120" y="436.9" width="41.2" height="86.2" as="geometry" />
        </mxCell>
        <mxCell id="654pxxizQ128VQVu-1QA-2" value="" style="verticalLabelPosition=bottom;html=1;verticalAlign=top;align=center;strokeColor=none;fillColor=#2875E2;shape=mxgraph.azure.mobile;pointerEvents=1;" vertex="1" parent="1">
          <mxGeometry x="350" y="410" width="60" height="110" as="geometry" />
        </mxCell>
        <mxCell id="654pxxizQ128VQVu-1QA-7" style="edgeStyle=orthogonalEdgeStyle;rounded=0;orthogonalLoop=1;jettySize=auto;html=1;entryX=0;entryY=0.5;entryDx=0;entryDy=0;entryPerimeter=0;" edge="1" parent="1" source="654pxxizQ128VQVu-1QA-1" target="654pxxizQ128VQVu-1QA-2">
          <mxGeometry relative="1" as="geometry" />
        </mxCell>
        <mxCell id="654pxxizQ128VQVu-1QA-12" value="get item coordinates" style="edgeLabel;html=1;align=center;verticalAlign=middle;resizable=0;points=[];" vertex="1" connectable="0" parent="654pxxizQ128VQVu-1QA-7">
          <mxGeometry x="-0.6625" y="1" relative="1" as="geometry">
            <mxPoint x="47" y="11" as="offset" />
          </mxGeometry>
        </mxCell>
        <mxCell id="654pxxizQ128VQVu-1QA-9" value="Location Service" style="aspect=fixed;sketch=0;html=1;dashed=0;whitespace=wrap;verticalLabelPosition=bottom;verticalAlign=top;fillColor=#2875E2;strokeColor=#ffffff;points=[[0.005,0.63,0],[0.1,0.2,0],[0.9,0.2,0],[0.5,0,0],[0.995,0.63,0],[0.72,0.99,0],[0.5,1,0],[0.28,0.99,0]];shape=mxgraph.kubernetes.icon2;prIcon=api" vertex="1" parent="1">
          <mxGeometry x="690" y="436.90000000000003" width="50" height="48" as="geometry" />
        </mxCell>
        <mxCell id="654pxxizQ128VQVu-1QA-10" style="edgeStyle=orthogonalEdgeStyle;rounded=0;orthogonalLoop=1;jettySize=auto;html=1;entryX=0.005;entryY=0.63;entryDx=0;entryDy=0;entryPerimeter=0;endArrow=classic;endFill=1;startArrow=classic;startFill=1;" edge="1" parent="1" source="654pxxizQ128VQVu-1QA-2" target="654pxxizQ128VQVu-1QA-9">
          <mxGeometry relative="1" as="geometry" />
        </mxCell>
        <mxCell id="654pxxizQ128VQVu-1QA-11" value="returns x,y Coordinates" style="edgeLabel;html=1;align=center;verticalAlign=middle;resizable=0;points=[];" vertex="1" connectable="0" parent="654pxxizQ128VQVu-1QA-10">
          <mxGeometry x="0.1601" y="1" relative="1" as="geometry">
            <mxPoint x="-22" y="19" as="offset" />
          </mxGeometry>
        </mxCell>
        <mxCell id="654pxxizQ128VQVu-1QA-13" value="Navigation Planner" style="aspect=fixed;sketch=0;html=1;dashed=0;whitespace=wrap;verticalLabelPosition=bottom;verticalAlign=top;fillColor=#2875E2;strokeColor=#ffffff;points=[[0.005,0.63,0],[0.1,0.2,0],[0.9,0.2,0],[0.5,0,0],[0.995,0.63,0],[0.72,0.99,0],[0.5,1,0],[0.28,0.99,0]];shape=mxgraph.kubernetes.icon2;prIcon=api" vertex="1" parent="1">
          <mxGeometry x="690" y="330" width="50" height="48" as="geometry" />
        </mxCell>
        <mxCell id="654pxxizQ128VQVu-1QA-14" style="edgeStyle=orthogonalEdgeStyle;rounded=0;orthogonalLoop=1;jettySize=auto;html=1;entryX=0.005;entryY=0.63;entryDx=0;entryDy=0;entryPerimeter=0;startArrow=classic;startFill=1;" edge="1" parent="1" source="654pxxizQ128VQVu-1QA-2" target="654pxxizQ128VQVu-1QA-13">
          <mxGeometry relative="1" as="geometry">
            <Array as="points">
              <mxPoint x="540" y="460" />
              <mxPoint x="540" y="360" />
            </Array>
          </mxGeometry>
        </mxCell>
      </root>
    </mxGraphModel>
  </diagram>
</mxfile>
